<?xml version="1.0" encoding="UTF-8" standalone="no"?>
<svg
   xmlns:dc="http://purl.org/dc/elements/1.1/"
   xmlns:cc="http://creativecommons.org/ns#"
   xmlns:rdf="http://www.w3.org/1999/02/22-rdf-syntax-ns#"
   xmlns:svg="http://www.w3.org/2000/svg"
   xmlns="http://www.w3.org/2000/svg"
   xmlns:xlink="http://www.w3.org/1999/xlink"
   version="1.1"
   id="svg2"
   viewBox="0 0 96.000001 96.000002"
   height="96"
   width="96">
  <defs
     id="defs4">
    <linearGradient
       id="linearGradient4363">
      <stop
         id="stop4365"
         offset="0"
         style="stop-color:#000000;stop-opacity:1;" />
      <stop
         id="stop4367"
         offset="1"
         style="stop-color:#0000a7;stop-opacity:1" />
    </linearGradient>
    <linearGradient
       gradientUnits="userSpaceOnUse"
       y2="3.9999995"
       x2="48"
       y1="88"
       x1="48"
       id="linearGradient4369"
       xlink:href="#linearGradient4363" />
  </defs>
  <metadata
     id="metadata7">
    <rdf:RDF>
      <cc:Work
         rdf:about="">
        <dc:format>image/svg+xml</dc:format>
        <dc:type
           rdf:resource="http://purl.org/dc/dcmitype/StillImage" />
        <dc:title></dc:title>
      </cc:Work>
    </rdf:RDF>
  </metadata>
  <g
     transform="translate(0,-956.36216)"
     id="layer1">
    <path
       id="rect4150"
       transform="translate(0,956.36216)"
       d="M 47.462891 2.0996094 A 3.6726501 2.1569791 0 0 0 43.791016 4.2578125 A 3.6726501 2.1569791 0 0 0 47.462891 6.4140625 A 3.6726501 2.1569791 0 0 0 51.134766 4.2578125 A 3.6726501 2.1569791 0 0 0 47.462891 2.0996094 z M 47.585938 6.4238281 L 27.5 14.191406 L 34.951172 26.925781 L 37.033203 26.933594 A 22.853083 4.5059791 0 0 0 27.171875 28.929688 A 22.853083 4.5059791 0 0 0 33.246094 34.404297 L 33.246094 70.939453 L 62.753906 70.939453 L 62.753906 34.300781 A 22.853083 4.5059791 0 0 0 68.121094 32.931641 L 68.257812 32.876953 A 22.853083 4.5059791 0 0 0 59.152344 27.025391 L 59.644531 27.027344 L 67.451172 14.355469 L 47.585938 6.4238281 z M 26.003906 71.744141 L 26.003906 81.144531 L 69.996094 81.144531 L 69.996094 71.744141 L 26.003906 71.744141 z M 3.7949219 81.498047 L 3.7949219 90.914062 L 92.205078 90.914062 L 92.205078 81.498047 L 3.7949219 81.498047 z "
       style="fill:url(#linearGradient4369);fill-opacity:1;stroke:#e9ba11;stroke-width:1.20219624;stroke-linejoin:miter;stroke-miterlimit:4;stroke-dasharray:none;stroke-opacity:1" />
    <path
       transform="matrix(0.3984538,0,0,0.32415489,62.043888,657.34276)"
       d="m -20,988.36218 -11.879005,-0.0616 -6.785175,9.75069 -3.612182,-11.31665 -11.370192,-3.43996 9.646554,-6.93243 -0.24199,-11.8767 9.57408,7.03218 11.220634,-3.90025 -3.729447,11.27856 z"
       id="path4216"
       style="fill:#ff00ff;fill-opacity:1;stroke:#000000;stroke-width:1;stroke-linejoin:miter;stroke-miterlimit:4;stroke-dasharray:none;stroke-opacity:1" />
  </g>
</svg>
