<?xml version="1.0" encoding="UTF-8" standalone="no"?>
<svg
   xmlns:dc="http://purl.org/dc/elements/1.1/"
   xmlns:cc="http://creativecommons.org/ns#"
   xmlns:rdf="http://www.w3.org/1999/02/22-rdf-syntax-ns#"
   xmlns:svg="http://www.w3.org/2000/svg"
   xmlns="http://www.w3.org/2000/svg"
   xmlns:xlink="http://www.w3.org/1999/xlink"
   version="1.1"
   id="svg2"
   viewBox="0 0 1000 1000"
   height="1000"
   width="1000">
  <defs
     id="defs4">
    <linearGradient
       id="linearGradient6154">
      <stop
         id="stop6156"
         offset="0"
         style="stop-color:#000000;stop-opacity:1;" />
      <stop
         id="stop6158"
         offset="1"
         style="stop-color:#000091;stop-opacity:1" />
    </linearGradient>
    <linearGradient
       gradientUnits="userSpaceOnUse"
       y2="200"
       x2="500"
       y1="700"
       x1="500"
       id="linearGradient6160"
       xlink:href="#linearGradient6154" />
  </defs>
  <metadata
     id="metadata7">
    <rdf:RDF>
      <cc:Work
         rdf:about="">
        <dc:format>image/svg+xml</dc:format>
        <dc:type
           rdf:resource="http://purl.org/dc/dcmitype/StillImage" />
        <dc:title></dc:title>
      </cc:Work>
    </rdf:RDF>
  </metadata>
  <g
     transform="translate(0,-52.362192)"
     id="layer1">
    <path
       id="rect3340"
       transform="translate(0,52.362192)"
       d="M 200 60 L 200 100 L 200 200 L 260 200 L 260 240 L 400 240 L 400 600 L 300 600 L 300 700 L 200 700 L 200 800 L 100 800 L 100 900 L 900 900 L 900 800 L 800 800 L 800 700 L 700 700 L 700 600 L 620 600 L 620 240 L 740 240 L 740 200 L 800 200 L 800 100 L 800 60 L 760 60 L 760 100 L 700 100 L 700 60 L 660 60 L 660 100 L 640 100 L 640 60 L 560 60 L 560 100 L 540 100 L 540 60 L 500 60 L 500 100 L 460 100 L 460 60 L 400 60 L 400 100 L 340 100 L 340 60 L 280 60 L 280 100 L 240 100 L 240 60 L 200 60 z "
       style="fill:url(#linearGradient6160);fill-opacity:1;stroke:#ffff00;stroke-opacity:1;stroke-width:10;stroke-miterlimit:4;stroke-dasharray:none;stroke-linejoin:miter" />
  </g>
</svg>
